<svg width="495" height="512" viewBox="0 0 495 512" fill="none" xmlns="http://www.w3.org/2000/svg">
<path d="M192 213.333C133.184 213.333 85.3333 165.483 85.3333 106.667C85.3333 47.8507 133.184 0 192 0C250.816 0 298.667 47.8507 298.667 106.667C298.667 165.483 250.816 213.333 192 213.333ZM192 21.3333C144.939 21.3333 106.667 59.6053 106.667 106.667C106.667 153.728 144.939 192 192 192C239.061 192 277.333 153.728 277.333 106.667C277.333 59.6053 239.061 21.3333 192 21.3333Z" fill="black"/>
<path d="M181.333 448H10.6667C4.77867 448 0 443.221 0 437.333V352C0 299.072 43.072 256 96 256H224C229.888 256 234.667 260.779 234.667 266.667C234.667 272.555 229.888 277.333 224 277.333H96C54.8267 277.333 21.3333 310.827 21.3333 352V426.667H181.333C187.221 426.667 192 431.445 192 437.333C192 443.221 187.221 448 181.333 448Z" fill="black"/>
<path d="M362.667 426.667C333.269 426.667 309.333 402.731 309.333 373.333C309.333 343.936 333.269 320 362.667 320C392.064 320 416 343.936 416 373.333C416 402.731 392.064 426.667 362.667 426.667ZM362.667 341.333C345.024 341.333 330.667 355.691 330.667 373.333C330.667 390.976 345.024 405.333 362.667 405.333C380.309 405.333 394.667 390.976 394.667 373.333C394.667 355.691 380.309 341.333 362.667 341.333Z" fill="black"/>
<path d="M379.669 512H345.643C334.635 512 325.504 503.744 324.416 492.779L321.707 465.664C315.243 462.784 309.077 459.2 303.253 454.933L278.336 466.176C268.331 470.741 256.576 466.923 251.093 457.387L234.091 427.925C228.587 418.389 231.189 406.357 240.107 399.936L262.059 384.149C261.632 380.843 261.333 377.173 261.333 373.333C261.333 369.493 261.632 365.803 262.059 362.517L240.107 346.731C231.189 340.309 228.587 328.277 234.091 318.741L251.093 289.28C256.597 279.744 268.288 275.968 278.336 280.491L303.253 291.733C309.077 287.467 315.243 283.883 321.707 281.003L324.416 253.888C325.504 242.944 334.635 234.688 345.643 234.688H379.669C390.677 234.688 399.808 242.944 400.896 253.909L403.605 281.024C410.091 283.904 416.256 287.509 422.059 291.755L446.976 280.512C457.024 276.011 468.736 279.787 474.219 289.301L491.221 318.763C496.725 328.299 494.123 340.331 485.205 346.752L463.253 362.539C463.68 365.845 463.979 369.515 463.979 373.355C463.979 377.195 463.68 380.885 463.253 384.171L485.205 399.957C494.123 406.379 496.725 418.411 491.221 427.947L474.24 457.387C468.736 466.901 457.067 470.72 446.997 466.176L422.08 454.933C416.256 459.2 410.091 462.784 403.627 465.664L400.896 492.8C399.808 503.744 390.677 512 379.669 512V512ZM304.747 431.893C307.2 431.893 309.632 432.747 311.595 434.389C318.827 440.448 326.827 445.077 335.339 448.192C339.179 449.6 341.888 453.077 342.293 457.152L345.664 490.667H379.691L383.04 457.152C383.445 453.077 386.155 449.6 389.995 448.192C398.507 445.077 406.507 440.427 413.739 434.389C416.896 431.765 421.248 431.168 424.96 432.853L455.765 446.763L472.768 417.301L445.504 397.717C442.176 395.328 440.533 391.232 441.216 387.2C442.005 382.699 442.645 378.112 442.645 373.376C442.645 368.64 442.005 364.053 441.216 359.552C440.512 355.52 442.176 351.445 445.504 349.035L472.768 329.451L455.765 299.989L424.96 313.877C421.227 315.563 416.875 314.965 413.717 312.341C406.507 306.283 398.528 301.653 389.973 298.539C386.133 297.131 383.424 293.653 383.019 289.579L379.669 256H345.643L342.293 289.515C341.888 293.589 339.179 297.067 335.339 298.475C326.827 301.589 318.827 306.24 311.595 312.277C308.459 314.901 304.107 315.52 300.373 313.813L269.568 299.904L252.565 329.365L279.829 348.949C283.157 351.339 284.8 355.435 284.117 359.467C283.328 363.968 282.688 368.555 282.688 373.291C282.688 378.027 283.328 382.613 284.117 387.115C284.821 391.147 283.157 395.221 279.829 397.632L252.565 417.216L269.568 446.677L300.373 432.789C301.781 432.192 303.253 431.893 304.747 431.893V431.893Z" fill="black"/>
</svg>
