<svg width="15" height="15" viewBox="0 0 15 15" fill="none" xmlns="http://www.w3.org/2000/svg">
<path d="M6.30001 0.900146C3.48691 0.900146 1.20001 3.18705 1.20001 6.00015C1.20001 8.81325 3.48691 11.1001 6.30001 11.1001C7.41373 11.1001 8.44176 10.7375 9.28126 10.1298L13.2258 14.0744L14.0742 13.2259L10.166 9.31773C10.9331 8.42505 11.4 7.26724 11.4 6.00015C11.4 3.18705 9.11311 0.900146 6.30001 0.900146ZM6.30001 1.50015C8.78885 1.50015 10.8 3.51131 10.8 6.00015C10.8 8.48898 8.78885 10.5001 6.30001 10.5001C3.81118 10.5001 1.80001 8.48898 1.80001 6.00015C1.80001 3.51131 3.81118 1.50015 6.30001 1.50015Z" fill="#104673"/>
</svg>
