<svg width="22" height="30" viewBox="0 0 22 30" fill="none" xmlns="http://www.w3.org/2000/svg">
<path d="M20 13H18V9C18 5.1 14.9 2 11 2C7.1 2 4 5.1 4 9V13H2V9C2 4 6 0 11 0C16 0 20 4 20 9V13Z" fill="black"/>
<path d="M19 30H3C1.3 30 0 28.7 0 27V15C0 13.3 1.3 12 3 12H19C20.7 12 22 13.3 22 15V27C22 28.7 20.7 30 19 30ZM3 14C2.4 14 2 14.4 2 15V27C2 27.6 2.4 28 3 28H19C19.6 28 20 27.6 20 27V15C20 14.4 19.6 14 19 14H3Z" fill="black"/>
<path d="M11 20C12.1046 20 13 19.1046 13 18C13 16.8954 12.1046 16 11 16C9.89543 16 9 16.8954 9 18C9 19.1046 9.89543 20 11 20Z" fill="black"/>
<path d="M11.5 18H10.5L9.5 24H12.5L11.5 18Z" fill="black"/>
</svg>
