<svg width="121" height="18" viewBox="0 0 121 18" fill="none" xmlns="http://www.w3.org/2000/svg">
<path d="M0.704 17V0.991999H4.592V7.472H10.472V0.991999H14.336V17H10.472V10.64H4.592V17H0.704ZM17.7431 17V0.991999H28.7111V3.992H21.6311V7.472H27.7751V10.496H21.6311V14H28.7111V17H17.7431ZM31.9696 17V0.991999H35.8576V13.952H42.8176V17H31.9696ZM49.1701 11.744V17H45.2821V0.991999H52.4821C54.3541 0.991999 55.8261 1.416 56.8981 2.264C57.9701 3.112 58.5061 4.424 58.5061 6.2C58.5061 7.976 57.9701 9.344 56.8981 10.304C55.8261 11.264 54.3541 11.744 52.4821 11.744H49.1701ZM49.1701 8.744H52.0021C52.8341 8.744 53.4261 8.528 53.7781 8.096C54.1301 7.664 54.3061 7.12 54.3061 6.464C54.3061 5.728 54.1301 5.136 53.7781 4.688C53.4261 4.24 52.8341 4.016 52.0021 4.016H49.1701V8.744ZM61.2196 17V0.991999H67.6516C70.3716 0.991999 72.3716 1.672 73.6516 3.032C74.9316 4.376 75.5716 6.368 75.5716 9.008C75.5716 11.632 74.9316 13.624 73.6516 14.984C72.3716 16.328 70.3716 17 67.6516 17H61.2196ZM65.1076 14H67.1956C68.6356 14 69.7236 13.6 70.4596 12.8C71.2116 12 71.5876 10.736 71.5876 9.008C71.5876 7.264 71.2116 5.992 70.4596 5.192C69.7236 4.392 68.6356 3.992 67.1956 3.992H65.1076V14ZM78.2821 17V0.991999H89.2501V3.992H82.1701V7.472H88.3141V10.496H82.1701V14H89.2501V17H78.2821ZM97.8847 17.312C96.6687 17.312 95.6127 17.224 94.7167 17.048C93.8367 16.888 93.0047 16.616 92.2207 16.232V12.536C92.9567 13.128 93.7887 13.576 94.7167 13.88C95.6447 14.184 96.5327 14.336 97.3807 14.336C98.0847 14.336 98.6367 14.2 99.0367 13.928C99.4367 13.656 99.6367 13.224 99.6367 12.632C99.6367 12.2 99.4527 11.856 99.0847 11.6C98.7327 11.344 98.2527 11.112 97.6447 10.904C97.0527 10.696 96.3967 10.464 95.6767 10.208C95.0527 10 94.4527 9.728 93.8767 9.392C93.3167 9.056 92.8527 8.6 92.4847 8.024C92.1327 7.448 91.9567 6.68 91.9567 5.72C91.9567 4.84 92.1727 4.016 92.6047 3.248C93.0367 2.464 93.7087 1.832 94.6207 1.352C95.5327 0.871999 96.7007 0.631999 98.1247 0.631999C99.1007 0.631999 99.9247 0.719999 100.597 0.896C101.285 1.072 101.997 1.336 102.733 1.688V5.408C102.173 4.976 101.525 4.584 100.789 4.232C100.069 3.88 99.3087 3.68 98.5087 3.632C97.7727 3.6 97.1567 3.72 96.6607 3.992C96.1647 4.264 95.9167 4.688 95.9167 5.264C95.9167 5.712 96.0527 6.064 96.3247 6.32C96.5967 6.576 96.9647 6.792 97.4287 6.968C97.9087 7.128 98.4527 7.304 99.0607 7.496C99.9247 7.752 100.701 8.056 101.389 8.408C102.077 8.76 102.621 9.232 103.021 9.824C103.421 10.416 103.621 11.192 103.621 12.152C103.621 13.128 103.397 14.008 102.949 14.792C102.501 15.56 101.845 16.176 100.981 16.64C100.133 17.088 99.1007 17.312 97.8847 17.312ZM106.36 17V0.991999H110.248V7.688L115.144 0.991999H120.04L114.04 7.76L120.544 17H115.672L111.352 10.76L110.248 11.984V17H106.36Z" fill="#353535"/>
</svg>
