<svg width="1598" height="1598" viewBox="0 0 1598 1598" fill="#3f51b5" xmlns="http://www.w3.org/2000/svg">
<path d="M1276.24 416.452H932.694C924.572 416.933 916.655 419.198 909.508 423.085C902.36 426.973 896.156 432.387 891.338 438.944L507.891 1033.4C504.002 1040.28 501.958 1048.05 501.958 1055.95C501.958 1063.86 504.002 1071.63 507.891 1078.51L676.095 1344.54C677.362 1347.29 679.39 1349.62 681.941 1351.25C684.491 1352.89 687.456 1353.76 690.485 1353.76C693.514 1353.76 696.479 1352.89 699.03 1351.25C701.58 1349.62 703.609 1347.29 704.875 1344.54L1288.57 438.944C1296.55 426.61 1290.99 416.452 1276.24 416.452Z" fill="#3f51b5"/>
<path d="M560.596 759.753L767.375 438.944C775.356 426.852 769.914 416.452 755.282 416.452H342.088C327.456 416.452 321.773 426.731 329.996 439.186L532.058 759.632C533.341 762.322 535.357 764.596 537.875 766.192C540.392 767.788 543.309 768.641 546.289 768.654C549.27 768.667 552.193 767.838 554.724 766.263C557.255 764.689 559.29 762.432 560.596 759.753Z" fill="#3f51b5"/>
</svg>
